<!--?xml version="1.0" standalone="no"?-->
              <svg id="sw-js-blob-svg" viewBox="0 0 100 100" xmlns="http://www.w3.org/2000/svg" version="1.1">
                    <defs> 
                        <linearGradient id="sw-gradient" x1="0" x2="1" y1="1" y2="0">
                            <stop id="stop1" stop-color="rgba(248, 117, 55, 1)" offset="0%"></stop>
                            <stop id="stop2" stop-color="rgba(251, 168, 31, 1)" offset="100%"></stop>
                        </linearGradient>
                    </defs>
                <path fill="url(#sw-gradient)" d="M23.5,-28.7C29.6,-22.8,33.3,-14.7,35.5,-5.7C37.8,3.3,38.7,13,35.3,21.7C31.9,30.3,24.2,37.8,15.7,39.2C7.2,40.7,-2.1,36,-10.8,31.9C-19.5,27.7,-27.6,24.2,-32.2,17.8C-36.8,11.4,-37.9,2.3,-35.4,-5.3C-33,-12.9,-27,-19,-20.5,-24.8C-14,-30.6,-7,-36.3,0.8,-37.3C8.7,-38.3,17.3,-34.6,23.5,-28.7Z" width="100%" height="100%" transform="translate(50 50)" stroke-width="0" style="transition: all 0.3s ease 0s;"></path>
              </svg>