<!--?xml version="1.0" standalone="no"?-->
              <svg id="sw-js-blob-svg" viewBox="0 0 100 100" xmlns="http://www.w3.org/2000/svg" version="1.1">
                    <defs> 
                        <linearGradient id="sw-gradient" x1="0" x2="1" y1="1" y2="0">
                            <stop id="stop1" stop-color="rgba(248, 117, 55, 1)" offset="0%"></stop>
                            <stop id="stop2" stop-color="rgba(251, 168, 31, 1)" offset="100%"></stop>
                        </linearGradient>
                    </defs>
                <path fill="url(#sw-gradient)" d="M22.4,-25.6C28.8,-21.3,33.6,-14.1,31.9,-8C30.2,-1.9,21.9,3,16.5,6.9C11.1,10.8,8.6,13.8,5.3,15.2C2,16.6,-2,16.6,-4.2,14.5C-6.5,12.4,-6.9,8.3,-9.3,5C-11.8,1.6,-16.2,-1,-18.7,-6.1C-21.2,-11.2,-21.7,-18.8,-18.2,-23.6C-14.8,-28.5,-7.4,-30.5,0.3,-30.9C8,-31.3,16,-29.9,22.4,-25.6Z" width="100%" height="100%" transform="translate(50 50)" stroke-width="0" style="transition: all 0.3s ease 0s;"></path>
              </svg>